<svg xmlns="http://www.w3.org/2000/svg" viewBox="0 0 860 260" font-family="'JetBrains Mono', ui-monospace, SFMono-Regular, monospace">
  <rect x="1.5" y="1.5" width="857" height="257" rx="14" fill="#0d1117" stroke="#26334a" stroke-width="1.5"/>
  <rect x="1.5" y="1.5" width="857" height="257" rx="14" fill="none" stroke="#36bcf7" stroke-width="1.5" stroke-dasharray="90 2150" stroke-linecap="round" opacity="0.85">
    <animate attributeName="stroke-dashoffset" values="0;-2240" dur="10s" repeatCount="indefinite"/>
  </rect>
  <circle cx="26" cy="24" r="5.5" fill="#ff5f57"/><circle cx="46" cy="24" r="5.5" fill="#febc2e"/><circle cx="66" cy="24" r="5.5" fill="#28c840"/>
  <text x="430" y="28" text-anchor="middle" fill="#8b949e" font-size="12">rajveer@github: ~/stats</text>
  <line x1="1.5" y1="44" x2="858.5" y2="44" stroke="#26334a" stroke-width="1"/>
  <text x="34" y="64" fill="#3fb950" font-size="12.5">$ <tspan fill="#e6edf3">git</tspan> <tspan fill="#8b949e">stats --live</tspan></text>
  <text x="470" y="64" fill="#6e7681" font-size="11" letter-spacing="1">TOP LANGUAGES BY CODE</text>
  <g>
    <circle cx="40" cy="78" r="3.5" fill="#36bcf7"><animate attributeName="opacity" values="1;0.3;1" dur="3s" begin="0.0s" repeatCount="indefinite"/></circle>
    <text x="54" y="84" fill="#36bcf7" font-size="20" font-weight="700">1,291</text>
    <text x="54" y="96" fill="#8b949e" font-size="10.5" letter-spacing="1">CONTRIBUTIONS</text>
    <text x="54" y="108" fill="#4d5866" font-size="9.5">past year</text></g><g>
    <circle cx="40" cy="122" r="3.5" fill="#3fb950"><animate attributeName="opacity" values="1;0.3;1" dur="3s" begin="0.4s" repeatCount="indefinite"/></circle>
    <text x="54" y="128" fill="#3fb950" font-size="20" font-weight="700">414</text>
    <text x="54" y="140" fill="#8b949e" font-size="10.5" letter-spacing="1">COMMITS</text>
    <text x="54" y="152" fill="#4d5866" font-size="9.5">past year</text></g><g>
    <circle cx="40" cy="166" r="3.5" fill="#a371f7"><animate attributeName="opacity" values="1;0.3;1" dur="3s" begin="0.8s" repeatCount="indefinite"/></circle>
    <text x="54" y="172" fill="#a371f7" font-size="20" font-weight="700">113</text>
    <text x="54" y="184" fill="#8b949e" font-size="10.5" letter-spacing="1">MERGED PRS</text>
    <text x="54" y="196" fill="#4d5866" font-size="9.5">all time</text></g><g>
    <circle cx="240" cy="78" r="3.5" fill="#e3b341"><animate attributeName="opacity" values="1;0.3;1" dur="3s" begin="1.2000000000000002s" repeatCount="indefinite"/></circle>
    <text x="254" y="84" fill="#e3b341" font-size="20" font-weight="700">17</text>
    <text x="254" y="96" fill="#8b949e" font-size="10.5" letter-spacing="1">STARS EARNED</text>
    <text x="254" y="108" fill="#4d5866" font-size="9.5">all time</text></g><g>
    <circle cx="240" cy="122" r="3.5" fill="#ff6b9d"><animate attributeName="opacity" values="1;0.3;1" dur="3s" begin="1.6s" repeatCount="indefinite"/></circle>
    <text x="254" y="128" fill="#ff6b9d" font-size="20" font-weight="700">9</text>
    <text x="254" y="140" fill="#8b949e" font-size="10.5" letter-spacing="1">FOLLOWERS</text>
    </g><g>
    <circle cx="240" cy="166" r="3.5" fill="#36bcf7"><animate attributeName="opacity" values="1;0.3;1" dur="3s" begin="2.0s" repeatCount="indefinite"/></circle>
    <text x="254" y="172" fill="#36bcf7" font-size="20" font-weight="700">12</text>
    <text x="254" y="184" fill="#8b949e" font-size="10.5" letter-spacing="1">REPOS</text>
    <text x="254" y="196" fill="#4d5866" font-size="9.5">original only</text></g>
  <g>
    <text x="470" y="87" fill="#e6edf3" font-size="11">JavaScript</text>
    <rect x="566" y="78" width="208" height="11" rx="5.5" fill="#161e2c"/>
    <rect x="566" y="78" width="115" height="11" rx="5.5" fill="#f1e05a">
      <animate attributeName="opacity" values="1;0.65;1" dur="4s" begin="0.0s" repeatCount="indefinite"/>
    </rect>
    <text x="826" y="87" text-anchor="end" fill="#8b949e" font-size="10.5">55.5%</text></g><g>
    <text x="470" y="113" fill="#e6edf3" font-size="11">HTML</text>
    <rect x="566" y="104" width="208" height="11" rx="5.5" fill="#161e2c"/>
    <rect x="566" y="104" width="40" height="11" rx="5.5" fill="#e34c26">
      <animate attributeName="opacity" values="1;0.65;1" dur="4s" begin="0.3s" repeatCount="indefinite"/>
    </rect>
    <text x="826" y="113" text-anchor="end" fill="#8b949e" font-size="10.5">19.2%</text></g><g>
    <text x="470" y="139" fill="#e6edf3" font-size="11">TypeScript</text>
    <rect x="566" y="130" width="208" height="11" rx="5.5" fill="#161e2c"/>
    <rect x="566" y="130" width="31" height="11" rx="5.5" fill="#3178c6">
      <animate attributeName="opacity" values="1;0.65;1" dur="4s" begin="0.6s" repeatCount="indefinite"/>
    </rect>
    <text x="826" y="139" text-anchor="end" fill="#8b949e" font-size="10.5">15.1%</text></g><g>
    <text x="470" y="165" fill="#e6edf3" font-size="11">Python</text>
    <rect x="566" y="156" width="208" height="11" rx="5.5" fill="#161e2c"/>
    <rect x="566" y="156" width="12" height="11" rx="5.5" fill="#3572A5">
      <animate attributeName="opacity" values="1;0.65;1" dur="4s" begin="0.8999999999999999s" repeatCount="indefinite"/>
    </rect>
    <text x="826" y="165" text-anchor="end" fill="#8b949e" font-size="10.5">5.9%</text></g><g>
    <text x="470" y="191" fill="#e6edf3" font-size="11">Kotlin</text>
    <rect x="566" y="182" width="208" height="11" rx="5.5" fill="#161e2c"/>
    <rect x="566" y="182" width="5" height="11" rx="5.5" fill="#A97BFF">
      <animate attributeName="opacity" values="1;0.65;1" dur="4s" begin="1.2s" repeatCount="indefinite"/>
    </rect>
    <text x="826" y="191" text-anchor="end" fill="#8b949e" font-size="10.5">2.3%</text></g><g>
    <text x="470" y="217" fill="#e6edf3" font-size="11">CSS</text>
    <rect x="566" y="208" width="208" height="11" rx="5.5" fill="#161e2c"/>
    <rect x="566" y="208" width="4" height="11" rx="5.5" fill="#663399">
      <animate attributeName="opacity" values="1;0.65;1" dur="4s" begin="1.5s" repeatCount="indefinite"/>
    </rect>
    <text x="826" y="217" text-anchor="end" fill="#8b949e" font-size="10.5">2.0%</text></g>
  <text x="826" y="244" text-anchor="end" fill="#4d5866" font-size="10">auto-generated daily from the GitHub API</text>
</svg>